<svg height="500" viewBox="0 0 132.29167 132.29167" width="500" xmlns="http://www.w3.org/2000/svg"><g fill-rule="evenodd"><rect fill="#27a320" height="132.29167" ry="16.593151" stroke-width=".518017" width="132.15373" x=".137934"/><rect fill="#0f0f0f" height="95.148132" ry="8.566946" stroke-width=".372768" transform="matrix(.70713994 .70707362 -.70713994 .70707362 0 0)" width="95.148598" x="46.05827" y="-47.565136"/><rect fill="#eee" height="64.623993" ry="5.447758" stroke-width=".253181" transform="matrix(.0000469 1 -1 -.0000469 0 0)" width="64.623993" x="33.828056" y="-98.457413"/><rect fill="#27a320" height="45.122921" ry="4.203397" stroke-width=".176781" transform="matrix(-.70710454 .70710902 -.70710454 -.70710902 0 0)" width="45.122921" x="-22.564938" y="-116.10592"/><path d="m78.098607 79.944399c1.206189-.06968 2.09578-1.170471 1.932316-2.240102-.0091-7.918465.01799-15.838202-.01333-23.755873-.0986-1.084531-1.299155-1.86084-2.45698-1.719617-7.787274.0093-15.576311-.01835-23.362491.0138-1.227843.09195-2.066825 1.238506-1.88535 2.313711.0091 7.892915-.01799 15.787059.01333 23.679206.102366 1.117076 1.360346 1.881317 2.541182 1.716565 7.743699-.0052 15.487968.01019 23.231323-.0077z" fill="#0f0f0f" stroke-width=".105197"/></g></svg>