<?xml version="1.0" encoding="UTF-8" standalone="no"?>
<!-- Created with Inkscape (http://www.inkscape.org/) -->

<svg
   width="500"
   height="500"
   viewBox="0 0 132.29167 132.29167"
   version="1.1"
   id="svg5"
   sodipodi:docname="logo.svg"
   inkscape:version="1.1 (c4e8f9ed74, 2021-05-24)"
   inkscape:export-filename="/home/calbabreaker/Downloads/logo.png"
   inkscape:export-xdpi="196.60799"
   inkscape:export-ydpi="196.60799"
   xmlns:inkscape="http://www.inkscape.org/namespaces/inkscape"
   xmlns:sodipodi="http://sodipodi.sourceforge.net/DTD/sodipodi-0.dtd"
   xmlns="http://www.w3.org/2000/svg"
   xmlns:svg="http://www.w3.org/2000/svg">
  <sodipodi:namedview
     id="namedview7"
     pagecolor="#505050"
     bordercolor="#ffffff"
     borderopacity="1"
     inkscape:pageshadow="0"
     inkscape:pageopacity="0"
     inkscape:pagecheckerboard="1"
     inkscape:document-units="mm"
     showgrid="false"
     units="px"
     width="500px"
     inkscape:zoom="1.2566359"
     inkscape:cx="232.36643"
     inkscape:cy="254.64814"
     inkscape:window-width="1920"
     inkscape:window-height="1045"
     inkscape:window-x="0"
     inkscape:window-y="35"
     inkscape:window-maximized="1"
     inkscape:current-layer="layer1">
    <inkscape:grid
       type="xygrid"
       id="grid687" />
  </sodipodi:namedview>
  <defs
     id="defs2" />
  <g
     inkscape:label="Layer 1"
     inkscape:groupmode="layer"
     id="layer1">
    <rect
       style="fill:#27a320;fill-opacity:1;fill-rule:evenodd;stroke-width:0.518017"
       id="rect2962"
       width="132.15373"
       height="132.29167"
       x="0.13793437"
       y="0"
       ry="16.593151" />
    <rect
       style="fill:#0f0f0f;fill-opacity:1;fill-rule:evenodd;stroke-width:0.372768"
       id="rect2962-1"
       width="95.148598"
       height="95.148132"
       x="46.05827"
       y="-47.565136"
       ry="8.566946"
       transform="matrix(0.70713994,0.70707362,-0.70713994,0.70707362,0,0)" />
    <rect
       style="fill:#eeeeee;fill-opacity:1;fill-rule:evenodd;stroke-width:0.253181"
       id="rect2962-1-7"
       width="64.623993"
       height="64.623993"
       x="33.828056"
       y="-98.457413"
       ry="5.4477577"
       transform="matrix(4.6895555e-5,1,-1,-4.6895089e-5,0,0)" />
    <rect
       style="fill:#27a320;fill-opacity:1;fill-rule:evenodd;stroke-width:0.176781"
       id="rect2962-1-7-2"
       width="45.122921"
       height="45.122921"
       x="-22.564938"
       y="-116.10592"
       ry="4.2033968"
       transform="matrix(-0.70710454,0.70710902,-0.70710454,-0.70710902,0,0)" />
    <path
       id="rect2962-1-7-2-6"
       style="fill:#0f0f0f;fill-opacity:1;fill-rule:evenodd;stroke-width:0.105197"
       d="m 78.098607,79.944399 c 1.206189,-0.06968 2.09578,-1.170471 1.932316,-2.240102 -0.0091,-7.918465 0.01799,-15.838202 -0.01333,-23.755873 -0.0986,-1.084531 -1.299155,-1.86084 -2.45698,-1.719617 -7.787274,0.0093 -15.576311,-0.01835 -23.362491,0.0138 -1.227843,0.09195 -2.066825,1.238506 -1.88535,2.313711 0.0091,7.892915 -0.01799,15.787059 0.01333,23.679206 0.102366,1.117076 1.360346,1.881317 2.541182,1.716565 7.743699,-0.0052 15.487968,0.01019 23.231323,-0.0077 z" />
  </g>
</svg>
